# xmcd
#
# Track frame offsets: 
#        150
#        42750
#        53550
#        68250
#        98175
#        121350
#        147525
#        183456
#        203775
#        234825
#        270900
#        295388
#
# Disc length: 4336 seconds
#
# Revision: 0
# Processed by: cddbd v1.5.2PL0 Copyright (c) Steve Scherf et al.
# Submitted via: ExactAudioCopy v1.0b1
#
DISCID=a410ee0c
DTITLE=Miklos Spanyi - Bach (CPE): Solo keyboard music v. 24
DYEAR=2011
DGENRE=Clavichord
TTITLE0=Sonata, keyboard, D Major   Allegro  H 022
TTITLE1=Sonata, keyboard, D Major   Andante  H 022 
TTITLE2=Sonata, keyboard, D Major   Allegro  H 022 
TTITLE3=Sonata, keyboard, d minor   Allegretto  H 038 
TTITLE4=Sonata, keyboard, d minor   Andante sostenuto  H 038 
TTITLE5=Sonata, keyboard, d minor   Presto  H 038
TTITLE6=Sonata, keyboard, E Major   Allegro  H 039 
TTITLE7=Sonata, keyboard, E Major   Andantino  H 039 
TTITLE8=Sonata, keyboard, E Major   Vivace di molto  H 039 
TTITLE9=Sonata, keyboard, b minor   Poco allegro  H 032.5 
TTITLE10=Sonata, keyboard, b minor   Adagio  H 032.5
TTITLE11=Sonata, keyboard, b minor   Allegro molto  H 032.5 
EXTD=
EXTT0=
EXTT1=
EXTT2=
EXTT3=
EXTT4=
EXTT5=
EXTT6=
EXTT7=
EXTT8=
EXTT9=
EXTT10=
EXTT11=
PLAYORDER=
